<svg width="1339" height="686" viewBox="0 0 1339 686" fill="none" xmlns="http://www.w3.org/2000/svg">
<g id="Dashboard">
<g clip-path="url(#clip0_202_3)">
<rect width="1339" height="686" rx="214" fill="#202020"/>
<g id="static">
<g id="Vector 70" filter="url(#filter0_d_202_3)">
<path d="M263.203 68.2627L210.938 18H1129.74L1077.47 68.2627C1059.06 85.9725 1034.5 95.8646 1008.95 95.8646H331.725C306.176 95.8646 281.619 85.9726 263.203 68.2627Z" fill="url(#paint0_linear_202_3)" shape-rendering="crispEdges"/>
</g>
<g id="Icons Right">
<g id="Park" opacity="0.4">
<path id="Shape" fill-rule="evenodd" clip-rule="evenodd" d="M1231.24 183.927C1236.07 183.927 1239.99 180.012 1239.99 175.181C1239.99 170.351 1236.07 166.436 1231.24 166.436C1226.41 166.436 1222.5 170.351 1222.5 175.181C1222.5 180.012 1226.41 183.927 1231.24 183.927ZM1231.24 187.425C1238.01 187.425 1243.49 181.944 1243.49 175.181C1243.49 168.419 1238.01 162.938 1231.24 162.938C1224.48 162.938 1219 168.419 1219 175.181C1219 181.944 1224.48 187.425 1231.24 187.425ZM1218.3 163.288C1219.07 163.868 1219.22 164.965 1218.64 165.737C1216.67 168.368 1215.5 171.636 1215.5 175.182C1215.5 178.727 1216.67 181.995 1218.64 184.626C1219.22 185.398 1219.07 186.495 1218.3 187.075C1217.52 187.655 1216.43 187.499 1215.85 186.727C1213.43 183.511 1212 179.511 1212 175.182C1212 170.852 1213.43 166.852 1215.85 163.636C1216.43 162.864 1217.52 162.708 1218.3 163.288ZM1244.18 163.288C1244.96 162.708 1246.05 162.864 1246.63 163.636C1249.05 166.852 1250.48 170.852 1250.48 175.182C1250.48 179.511 1249.05 183.511 1246.63 186.727C1246.05 187.499 1244.96 187.655 1244.18 187.075C1243.41 186.495 1243.26 185.398 1243.84 184.626C1245.81 181.995 1246.98 178.727 1246.98 175.182C1246.98 171.636 1245.81 168.368 1243.84 165.737C1243.26 164.965 1243.41 163.868 1244.18 163.288ZM1230.33 176.886H1232.16C1232.93 176.886 1233.6 176.759 1234.16 176.504C1234.72 176.249 1235.15 175.887 1235.44 175.417C1235.74 174.948 1235.89 174.393 1235.89 173.75C1235.89 173.117 1235.74 172.555 1235.44 172.063C1235.15 171.571 1234.72 171.186 1234.16 170.908C1233.6 170.626 1232.93 170.484 1232.16 170.484H1228.28V180.433H1230.33V176.886ZM1230.33 175.288V172.09H1232.16C1232.55 172.09 1232.87 172.167 1233.11 172.322C1233.36 172.477 1233.54 172.682 1233.65 172.937C1233.77 173.192 1233.82 173.468 1233.82 173.764C1233.82 174.056 1233.77 174.317 1233.65 174.55C1233.54 174.782 1233.36 174.964 1233.11 175.096C1232.87 175.224 1232.55 175.288 1232.16 175.288H1230.33Z" fill="white"/>
</g>
<g id="ABS" opacity="0.4">
<path id="Shape_2" fill-rule="evenodd" clip-rule="evenodd" d="M1198.74 129.771C1203.57 129.771 1207.49 125.855 1207.49 121.025C1207.49 116.195 1203.57 112.28 1198.74 112.28C1193.91 112.28 1190 116.195 1190 121.025C1190 125.855 1193.91 129.771 1198.74 129.771ZM1198.74 133.269C1205.51 133.269 1210.99 127.787 1210.99 121.025C1210.99 114.263 1205.51 108.781 1198.74 108.781C1191.98 108.781 1186.5 114.263 1186.5 121.025C1186.5 127.787 1191.98 133.269 1198.74 133.269ZM1185.8 109.132C1186.57 109.712 1186.72 110.809 1186.14 111.581C1184.17 114.212 1183 117.479 1183 121.025C1183 124.571 1184.17 127.839 1186.14 130.47C1186.72 131.242 1186.57 132.338 1185.8 132.919C1185.02 133.499 1183.93 133.343 1183.35 132.571C1180.93 129.355 1179.5 125.355 1179.5 121.025C1179.5 116.696 1180.93 112.696 1183.35 109.48C1183.93 108.708 1185.02 108.552 1185.8 109.132ZM1211.68 109.132C1212.46 108.552 1213.55 108.708 1214.13 109.48C1216.55 112.696 1217.98 116.696 1217.98 121.025C1217.98 125.355 1216.55 129.355 1214.13 132.571C1213.55 133.343 1212.46 133.499 1211.68 132.919C1210.91 132.338 1210.76 131.242 1211.34 130.47C1213.31 127.839 1214.48 124.571 1214.48 121.025C1214.48 117.479 1213.31 114.212 1211.34 111.581C1210.76 110.809 1210.91 109.712 1211.68 109.132ZM1204.55 122.583C1204.57 122.674 1204.58 122.775 1204.58 122.886C1204.58 123.02 1204.56 123.14 1204.52 123.245C1204.47 123.35 1204.4 123.434 1204.3 123.497C1204.21 123.56 1204.07 123.591 1203.91 123.591C1203.76 123.591 1203.64 123.572 1203.52 123.535C1203.41 123.495 1203.32 123.437 1203.24 123.36C1203.16 123.281 1203.11 123.175 1203.07 123.044C1203.03 122.91 1203.01 122.75 1203.01 122.562H1201.76C1201.76 122.915 1201.82 123.221 1201.93 123.48C1202.04 123.736 1202.19 123.948 1202.39 124.116C1202.58 124.281 1202.81 124.405 1203.06 124.488C1203.32 124.567 1203.59 124.607 1203.88 124.607C1204.18 124.607 1204.44 124.566 1204.68 124.483C1204.92 124.401 1205.13 124.284 1205.3 124.133C1205.47 123.979 1205.6 123.797 1205.69 123.587C1205.78 123.373 1205.83 123.137 1205.83 122.878C1205.83 122.616 1205.79 122.382 1205.72 122.177C1205.64 121.972 1205.53 121.789 1205.39 121.626C1205.24 121.461 1205.06 121.313 1204.85 121.182C1204.63 121.049 1204.38 120.926 1204.1 120.815C1203.95 120.758 1203.82 120.7 1203.7 120.64C1203.58 120.58 1203.47 120.519 1203.38 120.456C1203.3 120.391 1203.23 120.318 1203.18 120.239C1203.13 120.156 1203.1 120.064 1203.1 119.961C1203.1 119.824 1203.13 119.702 1203.18 119.594C1203.23 119.483 1203.3 119.396 1203.41 119.333C1203.51 119.268 1203.64 119.235 1203.8 119.235C1203.97 119.235 1204.11 119.274 1204.22 119.35C1204.33 119.427 1204.41 119.534 1204.46 119.671C1204.51 119.804 1204.53 119.96 1204.53 120.136H1205.78C1205.78 119.763 1205.7 119.433 1205.54 119.145C1205.38 118.858 1205.15 118.632 1204.86 118.466C1204.57 118.301 1204.22 118.219 1203.82 118.219C1203.53 118.219 1203.26 118.26 1203.03 118.343C1202.79 118.425 1202.58 118.543 1202.41 118.697C1202.23 118.848 1202.09 119.03 1202 119.244C1201.9 119.457 1201.86 119.695 1201.86 119.957C1201.86 120.224 1201.91 120.458 1202.01 120.657C1202.11 120.854 1202.25 121.024 1202.42 121.17C1202.59 121.315 1202.79 121.443 1203 121.554C1203.22 121.662 1203.44 121.765 1203.67 121.861C1203.87 121.944 1204.03 122.024 1204.14 122.1C1204.27 122.177 1204.36 122.254 1204.42 122.331C1204.49 122.408 1204.53 122.492 1204.55 122.583ZM1194.49 118.304H1194.17H1193.65H1193.35L1191.41 124.522H1192.73L1193.06 123.241H1194.78L1195.12 124.522H1196.45L1194.49 118.304ZM1194.51 122.203H1193.33L1193.92 119.967L1194.51 122.203ZM1198.29 123.488V121.81H1199.14H1199.14C1199.3 121.81 1199.43 121.846 1199.52 121.917C1199.61 121.985 1199.68 122.085 1199.72 122.216C1199.76 122.347 1199.78 122.5 1199.78 122.677C1199.78 122.834 1199.76 122.973 1199.72 123.095C1199.67 123.215 1199.6 123.31 1199.49 123.382C1199.39 123.453 1199.26 123.488 1199.09 123.488H1198.29ZM1200.3 121.242C1200.26 121.269 1200.22 121.293 1200.17 121.315C1200.28 121.347 1200.38 121.394 1200.47 121.456C1200.67 121.592 1200.81 121.772 1200.9 121.994C1200.99 122.213 1201.03 122.446 1201.03 122.694C1201.03 123.093 1200.96 123.429 1200.81 123.702C1200.66 123.972 1200.44 124.177 1200.15 124.317C1199.86 124.453 1199.51 124.522 1199.09 124.522H1198.29H1197.51H1197.04V118.304H1198.96C1199.27 118.304 1199.54 118.338 1199.79 118.407C1200.03 118.475 1200.24 118.579 1200.41 118.718C1200.58 118.858 1200.71 119.034 1200.8 119.248C1200.89 119.461 1200.94 119.713 1200.94 120.004C1200.94 120.26 1200.89 120.496 1200.78 120.713C1200.68 120.929 1200.52 121.106 1200.3 121.242ZM1199.36 120.819C1199.25 120.876 1199.11 120.905 1198.94 120.905H1198.29V119.342H1198.96C1199.13 119.342 1199.27 119.369 1199.38 119.423C1199.49 119.477 1199.57 119.562 1199.61 119.679C1199.66 119.793 1199.69 119.945 1199.69 120.136C1199.69 120.301 1199.66 120.442 1199.61 120.559C1199.55 120.673 1199.47 120.76 1199.36 120.819Z" fill="white"/>
</g>
<g id="Brake" opacity="0.4">
<path id="Shape_3" fill-rule="evenodd" clip-rule="evenodd" d="M1250.42 236.63C1255.25 236.63 1259.17 232.715 1259.17 227.885C1259.17 223.054 1255.25 219.139 1250.42 219.139C1245.59 219.139 1241.68 223.054 1241.68 227.885C1241.68 232.715 1245.59 236.63 1250.42 236.63ZM1250.42 240.128C1257.19 240.128 1262.67 234.647 1262.67 227.885C1262.67 221.122 1257.19 215.641 1250.42 215.641C1243.66 215.641 1238.18 221.122 1238.18 227.885C1238.18 234.647 1243.66 240.128 1250.42 240.128ZM1237.48 215.991C1238.25 216.571 1238.4 217.668 1237.82 218.44C1235.85 221.071 1234.68 224.339 1234.68 227.885C1234.68 231.431 1235.85 234.698 1237.82 237.329C1238.4 238.101 1238.25 239.198 1237.48 239.778C1236.7 240.358 1235.61 240.202 1235.03 239.43C1232.61 236.214 1231.18 232.214 1231.18 227.885C1231.18 223.555 1232.61 219.555 1235.03 216.339C1235.61 215.567 1236.7 215.411 1237.48 215.991ZM1263.36 215.991C1264.14 215.411 1265.23 215.567 1265.81 216.339C1268.23 219.555 1269.66 223.555 1269.66 227.885C1269.66 232.214 1268.23 236.214 1265.81 239.43C1265.23 240.202 1264.14 240.358 1263.36 239.778C1262.59 239.198 1262.44 238.101 1263.02 237.329C1264.99 234.698 1266.16 231.431 1266.16 227.885C1266.16 224.339 1264.99 221.071 1263.02 218.44C1262.44 217.668 1262.59 216.571 1263.36 215.991ZM1251.49 230.135L1251.78 221.5H1249.15L1249.44 230.135H1251.49ZM1249.46 231.903C1249.21 232.142 1249.09 232.443 1249.09 232.808C1249.09 233.161 1249.21 233.46 1249.46 233.705C1249.72 233.949 1250.05 234.072 1250.47 234.072C1250.89 234.072 1251.23 233.949 1251.48 233.705C1251.73 233.46 1251.85 233.161 1251.85 232.808C1251.85 232.443 1251.73 232.142 1251.48 231.903C1251.23 231.658 1250.89 231.535 1250.47 231.535C1250.05 231.535 1249.72 231.658 1249.46 231.903Z" fill="white"/>
</g>
</g>
<g id="Road">
<path id="Vector 1" d="M632.076 399.203L546.086 668.005" stroke="url(#paint1_linear_202_3)" stroke-width="4.0625" stroke-linecap="square"/>
<path id="Vector 2" d="M708.589 399.203L794.578 668.005" stroke="url(#paint2_linear_202_3)" stroke-width="4.0625" stroke-linecap="square"/>
</g>
<g id="Icons Left">
<g id="Parking lights" opacity="0.5">
<path id="Shape_4" fill-rule="evenodd" clip-rule="evenodd" d="M169.858 104.539C169.356 103.675 169.763 102.624 170.766 102.192L174.829 100.443C175.832 100.011 177.052 100.361 177.554 101.225C178.055 102.089 177.649 103.14 176.645 103.572L172.583 105.321C171.579 105.753 170.359 105.403 169.858 104.539ZM146.842 102.013C146.007 102.013 145.412 102.378 145.078 102.669C144.751 102.953 144.534 103.28 144.389 103.544C144.095 104.079 143.885 104.742 143.729 105.424C143.411 106.818 143.23 108.687 143.23 110.759C143.23 112.831 143.411 114.7 143.729 116.094C143.885 116.776 144.095 117.439 144.389 117.974C144.534 118.238 144.751 118.564 145.078 118.849C145.412 119.14 146.007 119.505 146.842 119.505C147.79 119.505 149.66 119.09 151.304 117.798C153.049 116.428 154.402 114.187 154.402 110.759C154.402 107.331 153.049 105.09 151.304 103.719C149.66 102.428 147.79 102.013 146.842 102.013ZM147.293 110.759C147.293 108.833 147.463 107.203 147.716 106.099C147.738 105.999 147.761 105.907 147.784 105.821C148.027 105.936 148.297 106.092 148.567 106.304C149.367 106.933 150.34 108.19 150.34 110.759C150.34 113.328 149.367 114.585 148.567 115.214C148.297 115.426 148.027 115.582 147.784 115.697C147.761 115.611 147.738 115.519 147.716 115.419C147.463 114.315 147.293 112.685 147.293 110.759ZM148.082 105.006C148.082 105.006 148.08 105.009 148.077 105.013C148.08 105.008 148.082 105.006 148.082 105.006ZM148.081 116.511L148.081 116.511C148.082 116.511 148.082 116.512 148.082 116.512C148.082 116.511 148.08 116.509 148.077 116.505L148.081 116.511ZM163.994 102.013C164.829 102.013 165.424 102.378 165.758 102.669C166.085 102.953 166.302 103.28 166.447 103.544C166.741 104.079 166.951 104.742 167.107 105.424C167.425 106.818 167.605 108.687 167.605 110.759C167.605 112.831 167.425 114.7 167.107 116.094C166.951 116.776 166.741 117.439 166.447 117.974C166.302 118.238 166.085 118.564 165.758 118.849C165.424 119.14 164.829 119.505 163.994 119.505C163.045 119.505 161.176 119.09 159.532 117.798C157.787 116.428 156.434 114.187 156.434 110.759C156.434 107.331 157.787 105.09 159.532 103.719C161.176 102.428 163.045 102.013 163.994 102.013ZM163.543 110.759C163.543 108.833 163.372 107.203 163.12 106.099C163.098 105.999 163.075 105.907 163.052 105.821C162.809 105.936 162.539 106.092 162.269 106.304C161.469 106.933 160.496 108.19 160.496 110.759C160.496 113.328 161.469 114.585 162.269 115.214C162.539 115.426 162.809 115.582 163.052 115.697C163.075 115.611 163.098 115.519 163.12 115.419C163.372 114.315 163.543 112.685 163.543 110.759ZM162.754 105.006C162.754 105.006 162.756 105.009 162.759 105.013C162.756 105.008 162.754 105.006 162.754 105.006ZM162.754 116.512C162.754 116.512 162.756 116.51 162.759 116.505C162.756 116.509 162.754 116.511 162.754 116.512ZM169.641 110.747C169.641 109.781 170.55 108.998 171.672 108.998H175.734C176.856 108.998 177.766 109.781 177.766 110.747C177.766 111.713 176.856 112.496 175.734 112.496H171.672C170.55 112.496 169.641 111.713 169.641 110.747ZM139.168 108.998C140.29 108.998 141.199 109.781 141.199 110.747C141.199 111.713 140.29 112.496 139.168 112.496H135.105C133.984 112.496 133.074 111.713 133.074 110.747C133.074 109.781 133.984 108.998 135.105 108.998H139.168ZM140.078 102.192C141.081 102.624 141.488 103.675 140.986 104.539C140.484 105.403 139.264 105.753 138.261 105.321L134.198 103.572C133.195 103.14 132.788 102.089 133.29 101.225C133.792 100.361 135.012 100.011 136.015 100.443L140.078 102.192ZM169.858 116.964C169.356 117.828 169.763 118.879 170.766 119.311L174.829 121.06C175.832 121.492 177.052 121.142 177.554 120.278C178.055 119.414 177.649 118.363 176.645 117.931L172.583 116.182C171.579 115.75 170.359 116.1 169.858 116.964ZM140.078 119.311C141.081 118.879 141.488 117.828 140.986 116.964C140.484 116.1 139.264 115.75 138.261 116.182L134.198 117.931C133.195 118.363 132.788 119.414 133.29 120.278C133.792 121.142 135.012 121.492 136.015 121.06L140.078 119.311Z" fill="#E9ED26"/>
</g>
<g id="Rare fog lights" opacity="0.3">
<g id="Shape_5">
<g id="Group 12">
<path id="Union" fill-rule="evenodd" clip-rule="evenodd" d="M102.765 259.325L102.771 259.322C103.492 258.997 103.817 258.149 103.496 257.425C103.173 256.699 102.323 256.372 101.596 256.695L102.181 258.009C101.596 256.695 101.595 256.695 101.594 256.696L101.592 256.697L101.587 256.699L101.573 256.705L101.532 256.724C101.5 256.74 101.457 256.76 101.406 256.787C101.302 256.839 101.162 256.914 100.998 257.011C100.671 257.205 100.232 257.497 99.7861 257.893C99.2077 258.407 98.5496 259.162 98.173 260.156L96.9251 259.532C96.2144 259.177 95.4161 259.494 95.1421 260.239C94.8681 260.985 95.2221 261.878 95.9329 262.233L98.1241 263.329C98.5058 264.344 99.2273 264.984 99.73 265.43L99.7861 265.48C100.518 266.13 100.742 266.384 100.742 266.962C100.742 267.463 100.56 267.824 100.142 268.336L96.9251 266.728C96.2144 266.372 95.4161 266.689 95.1421 267.435C94.8681 268.181 95.2221 269.073 95.9329 269.429L98.3629 270.644C98.0719 271.218 97.8644 271.902 97.8644 272.717C97.8644 273.445 98.0278 274.066 98.2707 274.596L96.9251 273.923C96.2144 273.568 95.4161 273.884 95.1421 274.63C94.8681 275.376 95.2221 276.269 95.9329 276.624L100.503 278.909C100.428 279.076 100.342 279.231 100.251 279.373C100.121 279.576 99.9909 279.734 99.8973 279.838C99.8511 279.889 99.8151 279.926 99.7946 279.946C99.7854 279.955 99.7795 279.961 99.7771 279.963C99.1916 280.492 99.1414 281.395 99.6666 281.986C100.195 282.58 101.104 282.634 101.698 282.106L100.742 281.03C101.698 282.106 101.699 282.105 101.699 282.104L101.701 282.103L101.705 282.099L101.715 282.091L101.74 282.067C101.759 282.049 101.784 282.026 101.813 281.997C101.871 281.94 101.948 281.861 102.036 281.763C102.212 281.567 102.442 281.286 102.672 280.929C102.808 280.717 102.948 280.472 103.078 280.196L104.566 280.94C105.276 281.296 106.075 280.979 106.349 280.233C106.623 279.487 106.269 278.595 105.558 278.239L103.567 277.244C103.457 276.639 103.189 276.14 102.893 275.736C102.588 275.317 102.196 274.93 101.896 274.633C101.848 274.585 101.802 274.54 101.759 274.498C101.055 273.793 100.742 273.364 100.742 272.717C100.742 272.427 100.803 272.183 100.936 271.93L104.566 273.745C105.276 274.101 106.075 273.784 106.349 273.038C106.623 272.292 106.269 271.399 105.558 271.044L102.76 269.645C103.224 268.962 103.62 268.088 103.62 266.962C103.62 266.624 103.584 266.313 103.522 266.028L104.566 266.55C105.276 266.905 106.075 266.589 106.349 265.843C106.623 265.097 106.269 264.204 105.558 263.849L100.782 261.461C100.895 260.925 101.237 260.454 101.698 260.044C101.972 259.801 102.252 259.613 102.465 259.487C102.57 259.425 102.654 259.38 102.709 259.352C102.736 259.338 102.755 259.329 102.765 259.325ZM91.5399 259.388C91.0934 258.748 90.3372 258.008 89.2355 258.008C88.2071 258.008 85.4184 258.423 82.8414 260.023C80.1741 261.678 77.725 264.623 77.725 269.518C77.725 274.413 80.1741 277.358 82.8414 279.014C85.4184 280.613 88.2071 281.029 89.2355 281.029C90.3372 281.029 91.0934 280.289 91.5399 279.648C92.0112 278.972 92.3748 278.085 92.656 277.112C93.2239 275.146 93.5519 272.485 93.5519 269.518C93.5519 266.551 93.2239 263.891 92.656 261.925C92.3748 260.951 92.0112 260.065 91.5399 259.388ZM89.8915 262.724C90.3627 264.355 90.6743 266.73 90.6743 269.518C90.6743 272.306 90.3627 274.682 89.8915 276.313C89.6531 277.138 89.3972 277.69 89.1791 278.003C89.134 278.068 89.0972 278.113 89.069 278.145C88.3099 278.097 86.2548 277.746 84.3589 276.569C82.39 275.347 80.6026 273.256 80.6026 269.518C80.6026 265.78 82.39 263.69 84.3589 262.468C86.2548 261.291 88.3099 260.94 89.069 260.891C89.0972 260.923 89.134 260.969 89.1791 261.034C89.3972 261.347 89.6531 261.898 89.8915 262.724ZM89.0023 260.828C89.0023 260.829 89.0064 260.832 89.0147 260.837C89.0065 260.83 89.0024 260.828 89.0023 260.828ZM89.0023 278.208C89.0024 278.209 89.0065 278.206 89.0147 278.199C89.0064 278.204 89.0023 278.208 89.0023 278.208Z" fill="#FFF7CD"/>
</g>
</g>
</g>
<g id="Lights" clip-path="url(#clip1_202_3)">
<path id="Shape_6" fill-rule="evenodd" clip-rule="evenodd" d="M111.953 140.271C111.953 139.785 112.347 139.391 112.833 139.391H118.115C118.601 139.391 118.995 139.785 118.995 140.271V144.484C122.602 145.9 125.158 149.43 125.158 153.56C125.158 158.938 120.823 163.299 115.475 163.299C110.128 163.299 105.793 158.938 105.793 153.56C105.793 149.431 108.347 145.902 111.953 144.485V140.271ZM115.475 159.757C118.878 159.757 121.637 156.982 121.637 153.56C121.637 150.137 118.878 147.362 115.475 147.362C112.072 147.362 109.314 150.137 109.314 153.56C109.314 156.982 112.072 159.757 115.475 159.757ZM114.595 165.945C114.109 165.945 113.715 166.339 113.715 166.826V170.377C113.715 170.864 114.109 171.258 114.595 171.258H116.355C116.842 171.258 117.236 170.864 117.236 170.377V166.826C117.236 166.339 116.842 165.945 116.355 165.945H114.595ZM123.546 164.171C123.204 163.826 123.204 163.267 123.546 162.923L124.795 161.667C125.138 161.322 125.693 161.322 126.036 161.667L128.529 164.175C128.872 164.52 128.872 165.078 128.529 165.423L127.281 166.679C126.938 167.024 126.382 167.024 126.04 166.679L123.546 164.171ZM106.156 161.671C105.813 161.326 105.257 161.326 104.915 161.671L102.421 164.179C102.079 164.524 102.079 165.083 102.421 165.427L103.67 166.683C104.013 167.028 104.568 167.028 104.911 166.683L107.404 164.175C107.747 163.831 107.747 163.272 107.404 162.927L106.156 161.671ZM123.546 142.93C123.204 143.275 123.204 143.834 123.546 144.179L124.795 145.435C125.138 145.779 125.693 145.779 126.036 145.435L128.529 142.927C128.872 142.582 128.872 142.023 128.529 141.678L127.281 140.423C126.938 140.078 126.382 140.078 126.04 140.423L123.546 142.93ZM106.156 145.43C105.813 145.775 105.257 145.775 104.915 145.43L102.421 142.923C102.079 142.578 102.079 142.019 102.421 141.674L103.67 140.418C104.013 140.074 104.568 140.074 104.911 140.418L107.404 142.926C107.747 143.271 107.747 143.83 107.404 144.175L106.156 145.43ZM127.801 152.661C127.801 152.175 128.195 151.781 128.681 151.781H132.202C132.688 151.781 133.082 152.175 133.082 152.661V154.443C133.082 154.929 132.688 155.323 132.202 155.323H128.681C128.195 155.323 127.801 154.929 127.801 154.443V152.661ZM98.7513 151.781C98.2652 151.781 97.8711 152.175 97.8711 152.661V154.443C97.8711 154.929 98.2652 155.323 98.7513 155.323H102.272C102.758 155.323 103.152 154.929 103.152 154.443V152.661C103.152 152.175 102.758 151.781 102.272 151.781H98.7513Z" fill="#32D74B"/>
<text id="AUTO" fill="#32D74B" xml:space="preserve" style="white-space: pre" font-family="Inter" font-size="10.5625" font-weight="200" letter-spacing="0em"><tspan x="101.477" y="182.232">AUTO</tspan></text>
</g>
<g id="Low beam headlights">
<g id="Shape_7">
<path d="M93.8952 214.604L84.9027 216.852C84.1318 217.045 83.6631 217.826 83.8558 218.597C84.0485 219.368 84.8297 219.836 85.6006 219.644L93.9533 217.555C93.9345 217.262 93.9195 216.967 93.9084 216.669L93.9077 216.651L93.887 215.807V214.934L93.8952 214.604Z" fill="#32D74B"/>
<path d="M94.0664 218.877L84.9027 221.168C84.1318 221.361 83.6631 222.142 83.8558 222.913C84.0485 223.684 84.8297 224.153 85.6006 223.96L94.5328 221.727C94.3294 220.832 94.174 219.876 94.0664 218.877Z" fill="#32D74B"/>
<path d="M95.3329 224.316L84.9027 226.924C84.1318 227.116 83.6631 227.897 83.8558 228.668C84.0485 229.439 84.8297 229.908 85.6006 229.715L96.9027 226.89C96.2643 226.203 95.7676 225.339 95.3937 224.461C95.3732 224.413 95.3529 224.365 95.3329 224.316Z" fill="#32D74B"/>
<path d="M96.8894 203.865C96.7337 203.851 96.5732 203.863 96.4131 203.903L84.9027 206.78C84.1318 206.973 83.6631 207.754 83.8558 208.525C84.0485 209.296 84.8297 209.765 85.6006 209.572L95.0375 207.213C95.1482 206.888 95.267 206.576 95.3937 206.279C95.765 205.407 96.2574 204.55 96.8894 203.865Z" fill="#32D74B"/>
<path d="M94.2994 210.186L84.9027 212.535C84.1318 212.728 83.6631 213.509 83.8558 214.28C84.0485 215.051 84.8297 215.52 85.6006 215.327L93.9498 213.24C94.0159 212.181 94.1324 211.155 94.2994 210.186Z" fill="#32D74B"/>
<path fill-rule="evenodd" clip-rule="evenodd" d="M95.3462 214.125C95.5597 208.393 97.2514 203.86 99.9594 203.86C101.644 203.86 104.529 204.552 106.851 205.838C110.42 207.815 112.589 210.98 112.589 215.37C112.589 219.76 110.42 222.925 106.851 224.902C104.529 226.188 101.644 226.881 99.9594 226.881C97.2514 226.881 95.5597 222.347 95.3462 216.615L95.3258 215.789V214.951L95.3462 214.125ZM105.457 208.356C103.577 207.315 101.172 206.737 99.9594 206.737L100.007 206.739C100.058 206.743 100.059 206.76 100.02 206.816L99.816 207.098C99.5824 207.458 99.3431 207.98 99.1262 208.631C98.546 210.372 98.2009 212.768 98.2009 215.37C98.2009 217.972 98.546 220.369 99.1262 222.109C99.3793 222.868 99.6627 223.453 99.9322 223.809L100.02 223.925C100.059 223.981 100.057 223.998 100.004 224.002L100.2 223.996C101.471 223.929 103.695 223.361 105.457 222.385C108.168 220.883 109.711 218.631 109.711 215.37C109.711 212.109 108.168 209.857 105.457 208.356Z" fill="#32D74B"/>
</g>
</g>
</g>
</g>
<g id="EAR">
<g id="Group 127">
<g id="Group">
<path id="Vector" fill-rule="evenodd" clip-rule="evenodd" d="M670.828 237.516C652.811 237.516 638.203 222.908 638.203 204.891C638.203 186.873 652.811 172.266 670.828 172.266C675.863 172.266 680.61 173.44 684.868 175.476C682.914 177.533 681.841 180.27 681.878 183.106C681.914 185.942 683.057 188.651 685.062 190.657C687.067 192.662 689.777 193.805 692.613 193.841C695.448 193.877 698.186 192.804 700.242 190.851C702.351 195.231 703.449 200.029 703.453 204.891C703.453 222.908 688.845 237.516 670.828 237.516ZM670.828 150.516C640.797 150.516 616.453 174.859 616.453 204.891C616.453 234.922 640.797 259.266 670.828 259.266C700.859 259.266 725.203 234.922 725.203 204.891C725.203 174.859 700.859 150.516 670.828 150.516Z" fill="#FFFFFE"/>
<g id="Mask group">
<mask id="mask0_202_3" style="mask-type:luminance" maskUnits="userSpaceOnUse" x="584" y="118" width="174" height="174">
<g id="Group_2">
<path id="Vector_2" d="M584 291.891V118H757.837V291.891H584Z" fill="#FFFFFE"/>
</g>
</mask>
<g mask="url(#mask0_202_3)">
<path id="Vector_3" fill-rule="evenodd" clip-rule="evenodd" d="M676.273 194.023C675.455 194.023 674.686 194.219 673.987 194.543C672.969 194.213 671.906 194.038 670.836 194.023C668.685 194.023 666.583 194.661 664.794 195.856C663.006 197.051 661.612 198.75 660.789 200.737C659.966 202.724 659.75 204.911 660.17 207.02C660.59 209.13 661.625 211.067 663.146 212.588C664.667 214.109 666.605 215.145 668.714 215.564C670.824 215.984 673.01 215.769 674.998 214.946C676.985 214.123 678.683 212.729 679.878 210.94C681.073 209.152 681.711 207.049 681.711 204.898C681.711 203.795 681.499 202.751 681.192 201.747C681.518 201.049 681.711 200.279 681.711 199.461C681.711 198.019 681.138 196.636 680.118 195.616C679.099 194.596 677.716 194.023 676.273 194.023Z" fill="#FFFFFE"/>
</g>
</g>
<g id="Mask group_2">
<mask id="mask1_202_3" style="mask-type:luminance" maskUnits="userSpaceOnUse" x="584" y="118" width="174" height="174">
<g id="Group_3">
<path id="Vector_4" d="M584 291.891V118H757.837V291.891H584Z" fill="#4C5665"/>
</g>
</mask>
<g mask="url(#mask1_202_3)">
<path id="Vector_5" fill-rule="evenodd" clip-rule="evenodd" d="M670.836 259.273C640.805 259.273 616.461 234.93 616.461 204.898C616.461 174.867 640.805 150.523 670.836 150.523C700.867 150.523 725.211 174.867 725.211 204.898C725.211 234.93 700.867 259.273 670.836 259.273ZM670.836 117.898C622.787 117.898 583.836 156.85 583.836 204.898C583.836 252.947 622.787 291.898 670.836 291.898C718.884 291.898 757.836 252.947 757.836 204.898C757.836 156.85 718.884 117.898 670.836 117.898Z" fill="#4C5665"/>
</g>
</g>
<path id="Vector_6" fill-rule="evenodd" clip-rule="evenodd" d="M681.703 204.891C681.703 207.041 681.065 209.144 679.87 210.932C678.675 212.721 676.977 214.115 674.99 214.938C673.003 215.761 670.816 215.976 668.707 215.557C666.597 215.137 664.659 214.101 663.138 212.58C661.617 211.06 660.582 209.122 660.162 207.012C659.742 204.903 659.958 202.716 660.781 200.729C661.604 198.742 662.998 197.043 664.786 195.848C666.575 194.653 668.677 194.016 670.828 194.016C671.932 194.016 672.976 194.228 673.979 194.535C674.678 194.211 675.447 194.016 676.266 194.016C677.708 194.016 679.091 194.589 680.111 195.608C681.13 196.628 681.703 198.011 681.703 199.453C681.703 200.271 681.51 201.041 681.184 201.74C681.491 202.743 681.703 203.787 681.703 204.891ZM692.578 194.016C690.431 194.015 688.332 193.378 686.546 192.186C684.76 190.994 683.366 189.299 682.542 187.317C681.717 185.334 681.498 183.152 681.912 181.044C682.326 178.937 683.354 177 684.868 175.476C680.488 173.367 675.69 172.27 670.828 172.266C652.811 172.266 638.203 186.873 638.203 204.891C638.203 222.908 652.811 237.516 670.828 237.516C688.845 237.516 703.453 222.908 703.453 204.891C703.453 199.856 702.279 195.109 700.242 190.851C698.208 192.88 695.451 194.018 692.578 194.016Z" fill="#4C5665"/>
</g>
<rect id="Rectangle 114" x="609.32" y="205.258" width="58.9707" height="123.038" rx="29.4854" transform="rotate(-90 609.32 205.258)" fill="#2F3237"/>
</g>
<text id="EYE ASPECT RATIO" fill="white" xml:space="preserve" style="white-space: pre" font-family="Inter" font-size="29.0341" font-weight="bold" letter-spacing="0em"><tspan x="532.194" y="336.402">EYE ASPECT RATIO</tspan></text>
</g>
<g id="acceleration">
<g id="LOW-A">
<g id="low" filter="url(#filter1_d_202_3)">
<rect x="160.812" y="628.453" width="23.8353" height="47.6705" transform="rotate(-90 160.812 628.453)" fill="#32D74B"/>
</g>
<g id="low_2" filter="url(#filter2_d_202_3)">
<rect x="211.664" y="628.453" width="23.8353" height="47.6705" transform="rotate(-90 211.664 628.453)" fill="#32D74B"/>
</g>
<g id="low_3" filter="url(#filter3_d_202_3)">
<rect x="262.504" y="628.453" width="23.8353" height="47.6705" transform="rotate(-90 262.504 628.453)" fill="#32D74B"/>
</g>
</g>
<g id="MEDIUM-A">
<rect id="med" x="313.359" y="628.453" width="23.8353" height="47.6705" transform="rotate(-90 313.359 628.453)" fill="#D79F32"/>
<rect id="med_2" x="364.203" y="628.453" width="23.8353" height="47.6705" transform="rotate(-90 364.203 628.453)" fill="#D79F32"/>
</g>
<g id="HIGH-A">
<rect id="high" x="415.059" y="628.453" width="23.8353" height="47.6705" transform="rotate(-90 415.059 628.453)" fill="#D73232"/>
<rect id="high_2" x="465.906" y="628.453" width="23.8353" height="47.6705" transform="rotate(-90 465.906 628.453)" fill="#D73232"/>
</g>
<text id="ACCELERATION" fill="white" xml:space="preserve" style="white-space: pre" font-family="Inter" font-size="29.0341" font-weight="bold" letter-spacing="0em"><tspan x="240.002" y="578.238">ACCELERATION</tspan></text>
<path id="speedometer" d="M206.452 587.013C217.148 587.013 225.977 578.184 225.977 567.507C225.977 556.829 217.13 548 206.433 548C195.755 548 186.945 556.829 186.945 567.507C186.945 578.184 195.774 587.013 206.452 587.013ZM206.452 583.127C197.793 583.127 190.869 576.166 190.869 567.507C190.869 558.847 197.793 551.905 206.433 551.905C215.092 551.905 222.053 558.847 222.072 567.507C222.091 576.166 215.111 583.127 206.452 583.127ZM206.433 558.772C207.489 558.772 208.376 557.885 208.376 556.829C208.376 555.754 207.489 554.886 206.433 554.886C205.358 554.886 204.509 555.754 204.509 556.829C204.509 557.885 205.377 558.772 206.433 558.772ZM198.981 562.055C200.057 562.055 200.924 561.168 200.924 560.111C200.924 559.055 200.057 558.168 198.981 558.168C197.925 558.168 197.038 559.055 197.038 560.111C197.038 561.168 197.925 562.055 198.981 562.055ZM203.471 570.468C205.075 572.034 207.282 571.676 208.565 569.827L215.488 559.998C216.262 558.866 215.13 557.753 214.017 558.508L204.094 565.356C202.245 566.62 201.905 568.846 203.471 570.468ZM195.85 569.45C196.925 569.45 197.793 568.563 197.793 567.507C197.793 566.431 196.925 565.563 195.85 565.563C194.793 565.563 193.907 566.431 193.907 567.507C193.907 568.563 194.793 569.45 195.85 569.45ZM217.035 569.45C218.092 569.45 218.978 568.563 218.978 567.507C218.978 566.431 218.092 565.563 217.035 565.563C215.96 565.563 215.092 566.431 215.092 567.507C215.092 568.563 215.96 569.45 217.035 569.45ZM199.019 576.845C200.094 576.845 200.962 575.958 200.962 574.902C200.962 573.826 200.094 572.959 199.019 572.959C197.963 572.959 197.076 573.826 197.076 574.902C197.076 575.958 197.963 576.845 199.019 576.845ZM213.866 576.845C214.922 576.845 215.809 575.958 215.809 574.902C215.809 573.826 214.922 572.959 213.866 572.959C212.791 572.959 211.923 573.826 211.923 574.902C211.923 575.958 212.791 576.845 213.866 576.845Z" fill="white" fill-opacity="0.9"/>
</g>
<g id="brake">
<g id="LOW-B">
<g id="low_4" filter="url(#filter4_d_202_3)">
<rect x="842" y="628.266" width="23.8353" height="47.6705" transform="rotate(-90 842 628.266)" fill="#32D74B"/>
</g>
<g id="low_5" filter="url(#filter5_d_202_3)">
<rect x="892.852" y="628.266" width="23.8353" height="47.6705" transform="rotate(-90 892.852 628.266)" fill="#32D74B"/>
</g>
<g id="low_6" filter="url(#filter6_d_202_3)">
<rect x="943.688" y="628.266" width="23.8353" height="47.6705" transform="rotate(-90 943.688 628.266)" fill="#32D74B"/>
</g>
</g>
<g id="MEDIUM-B">
<rect id="med_3" x="994.547" y="628.266" width="23.8353" height="47.6705" transform="rotate(-90 994.547 628.266)" fill="#D79F32"/>
<rect id="med_4" x="1045.39" y="628.266" width="23.8353" height="47.6705" transform="rotate(-90 1045.39 628.266)" fill="#D79F32"/>
</g>
<g id="HIGH-B">
<rect id="high_3" x="1096.25" y="628.266" width="23.8353" height="47.6705" transform="rotate(-90 1096.25 628.266)" fill="#D73232"/>
<rect id="high_4" x="1147.09" y="628.266" width="23.8353" height="47.6705" transform="rotate(-90 1147.09 628.266)" fill="#D73232"/>
</g>
<text id="BRAKE" fill="white" xml:space="preserve" style="white-space: pre" font-family="Inter" font-size="29.0341" font-weight="bold" letter-spacing="0em"><tspan x="998.237" y="578.058">BRAKE</tspan></text>
<path id="brake-icon" fill-rule="evenodd" clip-rule="evenodd" d="M942.151 580.883C949.718 580.883 955.853 574.749 955.853 567.182C955.853 559.615 949.718 553.481 942.151 553.481C934.584 553.481 928.45 559.615 928.45 567.182C928.45 574.749 934.584 580.883 942.151 580.883ZM942.151 586.364C952.745 586.364 961.333 577.776 961.333 567.182C961.333 556.588 952.745 548 942.151 548C931.558 548 922.97 556.588 922.97 567.182C922.97 577.776 931.558 586.364 942.151 586.364ZM921.865 548.549C923.075 549.458 923.319 551.176 922.41 552.386C919.314 556.508 917.481 561.627 917.481 567.182C917.481 572.737 919.314 577.856 922.41 581.978C923.319 583.188 923.075 584.906 921.865 585.815C920.654 586.723 918.937 586.479 918.028 585.269C914.243 580.231 912 573.965 912 567.182C912 560.399 914.243 554.133 918.028 549.095C918.937 547.885 920.654 547.64 921.865 548.549ZM962.421 548.549C963.631 547.64 965.349 547.885 966.258 549.095C970.042 554.133 972.286 560.399 972.286 567.182C972.286 573.965 970.042 580.231 966.258 585.269C965.349 586.479 963.631 586.723 962.421 585.815C961.211 584.906 960.967 583.188 961.876 581.978C964.972 577.856 966.805 572.737 966.805 567.182C966.805 561.627 964.972 556.508 961.876 552.386C960.967 551.176 961.211 549.458 962.421 548.549ZM943.829 570.712L944.27 557.185H940.163L940.617 570.712H943.829ZM940.644 573.482C940.252 573.856 940.056 574.329 940.056 574.9C940.056 575.453 940.252 575.921 940.644 576.305C941.046 576.689 941.572 576.88 942.223 576.88C942.883 576.88 943.409 576.689 943.802 576.305C944.194 575.921 944.391 575.453 944.391 574.9C944.391 574.329 944.194 573.856 943.802 573.482C943.409 573.098 942.883 572.906 942.223 572.906C941.572 572.906 941.046 573.098 940.644 573.482Z" fill="white"/>
</g>
<g id="SEAT BELT">
<g id="seat-belt">
<path id="Vector_7" d="M1005.29 293.163C1004.79 292.915 1004.39 292.666 1004.17 292.375V292.375C1001.63 289.312 1004.24 285.124 1007.39 282.688C1014.17 277.451 1017.84 268.765 1017.84 258.921C1017.84 242.912 1007.05 229.945 991.654 229.945C976.296 229.945 965.507 242.912 965.507 258.921C965.507 268.766 969.186 277.454 975.962 282.691C979.101 285.117 981.699 289.31 979.18 292.375V292.375C975.68 296.578 937.318 296.053 938.186 353.534C955.827 335.313 978.494 313.983 1005.29 293.163Z" fill="#D40808"/>
<path id="Vector_8" d="M940.594 383.774C946.264 426.201 959.914 446.232 967.125 448.375C975.413 450.822 984.597 449.052 986.865 445.485C992.101 437.205 962.056 403.391 969.393 397.28C972.501 394.695 986.235 394.364 991.709 394.336C997.197 394.364 1010.93 394.695 1014.04 397.28C1021.39 403.391 991.346 437.205 996.596 445.485C998.864 449.052 1008.02 450.822 1016.34 448.375C1023.38 446.246 1036.66 426.933 1042.5 386.194C1004.45 380.581 965.235 381.908 940.594 383.774V383.774Z" fill="#D40808"/>
<path id="Vector_9" d="M957.82 362.238C982.181 361.132 1013.5 361.339 1044.61 365.874C1044.81 362.971 1044.97 359.998 1045.1 356.916C1046.4 325.507 1036.43 310.508 1026 302.711C999.164 322.756 976.077 343.838 957.82 362.238V362.238Z" fill="#D40808"/>
<path id="Vector_10" d="M1060.93 277.59C1065.61 274.756 1067.2 268.522 1064.46 263.656C1061.74 258.803 1055.78 257.144 1051.09 259.978C1032.89 271.01 1020.92 281.032 1005.3 293.156C1008.66 294.815 1017.49 296.377 1025.98 302.722C1038.55 293.363 1046.86 286.12 1060.93 277.59Z" fill="#D40808"/>
<path id="Vector_11" d="M1065.48 368.124C1058.06 366.437 1052.18 367.004 1044.62 365.898C1044.13 373.198 1043.39 379.944 1042.49 386.192C1049.42 387.215 1054.6 386.523 1061.35 388.058C1062.05 388.21 1062.76 388.279 1063.43 388.279C1067.94 388.279 1072 384.989 1072.98 380.22C1074.14 374.718 1070.75 369.299 1065.48 368.124Z" fill="#D40808"/>
<path id="Vector_12" d="M938.641 363.392C938.515 361.263 938.389 359.12 938.291 356.909C938.235 355.733 938.235 354.628 938.221 353.508C934.595 357.254 931.179 360.876 927.959 364.346C920.552 372.35 916.021 377.52 911.107 383.354C903.155 392.782 900.276 396.915 899.604 397.8C896.3 402.251 897.07 408.651 901.34 412.108C903.133 413.545 905.247 414.25 907.333 414.25C910.259 414.25 913.157 412.896 915.075 410.31C915.313 409.992 921.014 401.81 937.129 384.018H937.143C938.235 383.907 939.397 383.838 940.573 383.741C940.447 382.732 940.321 381.695 940.195 380.672C939.537 375.253 939.005 369.516 938.641 363.392Z" fill="#D40808"/>
</g>
</g>
<g id="BPM">
<g id="Ellipse 30" filter="url(#filter7_d_202_3)">
<path d="M439.792 347.06C439.792 373.533 430.612 399.188 413.818 419.652C397.023 440.116 373.653 454.124 347.688 459.288C321.724 464.453 294.771 460.455 271.424 447.976C248.077 435.496 229.779 415.308 219.648 390.849C209.517 366.391 208.18 339.177 215.865 313.844C223.55 288.51 239.781 266.625 261.792 251.917C283.804 237.21 310.235 230.589 336.58 233.184C362.926 235.779 387.557 247.428 406.277 266.148" stroke="url(#paint3_linear_202_3)" stroke-width="11.5104" stroke-linecap="round" shape-rendering="crispEdges"/>
</g>
<text id="bpm-val" fill="white" xml:space="preserve" style="white-space: pre" font-family="Inter" font-size="59.5833" font-weight="300" letter-spacing="0em"><tspan x="291.343" y="356.651">75</tspan></text>
<text id="text" fill="white" xml:space="preserve" style="white-space: pre" font-family="Inter" font-size="21.7755" font-weight="500" letter-spacing="0px"><tspan x="301.629" y="391.684">BPM</tspan></text>
</g>
<g id="DATE-TIME">
<text id="time" fill="white" xml:space="preserve" style="white-space: pre" font-family="Inter" font-size="21.6667" font-weight="600" letter-spacing="0em"><tspan x="304.881" y="64.2928">19:30</tspan></text>
<text id="date" fill="white" xml:space="preserve" style="white-space: pre" font-family="Inter" font-size="21.6667" font-weight="500" letter-spacing="0em"><tspan x="884.778" y="64.621">02/08/2022</tspan></text>
</g>
<rect id="Rectangle 116" x="11" y="9" width="1318" height="668" rx="214" stroke="#01EBD4" stroke-width="18"/>
</g>
</g>
<defs>
<filter id="filter0_d_202_3" x="159.479" y="-19.9167" width="1021.72" height="180.784" filterUnits="userSpaceOnUse" color-interpolation-filters="sRGB">
<feFlood flood-opacity="0" result="BackgroundImageFix"/>
<feColorMatrix in="SourceAlpha" type="matrix" values="0 0 0 0 0 0 0 0 0 0 0 0 0 0 0 0 0 0 127 0" result="hardAlpha"/>
<feOffset dy="13.5417"/>
<feGaussianBlur stdDeviation="25.7292"/>
<feComposite in2="hardAlpha" operator="out"/>
<feColorMatrix type="matrix" values="0 0 0 0 0 0 0 0 0 1 0 0 0 0 0.7 0 0 0 0.1 0"/>
<feBlend mode="normal" in2="BackgroundImageFix" result="effect1_dropShadow_202_3"/>
<feBlend mode="normal" in="SourceGraphic" in2="effect1_dropShadow_202_3" result="shape"/>
</filter>
<filter id="filter1_d_202_3" x="40.0472" y="515.632" width="289.202" height="265.367" filterUnits="userSpaceOnUse" color-interpolation-filters="sRGB">
<feFlood flood-opacity="0" result="BackgroundImageFix"/>
<feColorMatrix in="SourceAlpha" type="matrix" values="0 0 0 0 0 0 0 0 0 0 0 0 0 0 0 0 0 0 127 0" result="hardAlpha"/>
<feOffset dy="31.7803"/>
<feGaussianBlur stdDeviation="60.3827"/>
<feComposite in2="hardAlpha" operator="out"/>
<feColorMatrix type="matrix" values="0 0 0 0 0 0 0 0 0 1 0 0 0 0 0.7 0 0 0 0.1 0"/>
<feBlend mode="normal" in2="BackgroundImageFix" result="effect1_dropShadow_202_3"/>
<feBlend mode="normal" in="SourceGraphic" in2="effect1_dropShadow_202_3" result="shape"/>
</filter>
<filter id="filter2_d_202_3" x="90.8988" y="515.632" width="289.202" height="265.367" filterUnits="userSpaceOnUse" color-interpolation-filters="sRGB">
<feFlood flood-opacity="0" result="BackgroundImageFix"/>
<feColorMatrix in="SourceAlpha" type="matrix" values="0 0 0 0 0 0 0 0 0 0 0 0 0 0 0 0 0 0 127 0" result="hardAlpha"/>
<feOffset dy="31.7803"/>
<feGaussianBlur stdDeviation="60.3827"/>
<feComposite in2="hardAlpha" operator="out"/>
<feColorMatrix type="matrix" values="0 0 0 0 0 0 0 0 0 1 0 0 0 0 0.7 0 0 0 0.1 0"/>
<feBlend mode="normal" in2="BackgroundImageFix" result="effect1_dropShadow_202_3"/>
<feBlend mode="normal" in="SourceGraphic" in2="effect1_dropShadow_202_3" result="shape"/>
</filter>
<filter id="filter3_d_202_3" x="141.739" y="515.632" width="289.202" height="265.367" filterUnits="userSpaceOnUse" color-interpolation-filters="sRGB">
<feFlood flood-opacity="0" result="BackgroundImageFix"/>
<feColorMatrix in="SourceAlpha" type="matrix" values="0 0 0 0 0 0 0 0 0 0 0 0 0 0 0 0 0 0 127 0" result="hardAlpha"/>
<feOffset dy="31.7803"/>
<feGaussianBlur stdDeviation="60.3827"/>
<feComposite in2="hardAlpha" operator="out"/>
<feColorMatrix type="matrix" values="0 0 0 0 0 0 0 0 0 1 0 0 0 0 0.7 0 0 0 0.1 0"/>
<feBlend mode="normal" in2="BackgroundImageFix" result="effect1_dropShadow_202_3"/>
<feBlend mode="normal" in="SourceGraphic" in2="effect1_dropShadow_202_3" result="shape"/>
</filter>
<filter id="filter4_d_202_3" x="721.235" y="515.445" width="289.202" height="265.367" filterUnits="userSpaceOnUse" color-interpolation-filters="sRGB">
<feFlood flood-opacity="0" result="BackgroundImageFix"/>
<feColorMatrix in="SourceAlpha" type="matrix" values="0 0 0 0 0 0 0 0 0 0 0 0 0 0 0 0 0 0 127 0" result="hardAlpha"/>
<feOffset dy="31.7803"/>
<feGaussianBlur stdDeviation="60.3827"/>
<feComposite in2="hardAlpha" operator="out"/>
<feColorMatrix type="matrix" values="0 0 0 0 0 0 0 0 0 1 0 0 0 0 0.7 0 0 0 0.1 0"/>
<feBlend mode="normal" in2="BackgroundImageFix" result="effect1_dropShadow_202_3"/>
<feBlend mode="normal" in="SourceGraphic" in2="effect1_dropShadow_202_3" result="shape"/>
</filter>
<filter id="filter5_d_202_3" x="772.086" y="515.445" width="289.202" height="265.367" filterUnits="userSpaceOnUse" color-interpolation-filters="sRGB">
<feFlood flood-opacity="0" result="BackgroundImageFix"/>
<feColorMatrix in="SourceAlpha" type="matrix" values="0 0 0 0 0 0 0 0 0 0 0 0 0 0 0 0 0 0 127 0" result="hardAlpha"/>
<feOffset dy="31.7803"/>
<feGaussianBlur stdDeviation="60.3827"/>
<feComposite in2="hardAlpha" operator="out"/>
<feColorMatrix type="matrix" values="0 0 0 0 0 0 0 0 0 1 0 0 0 0 0.7 0 0 0 0.1 0"/>
<feBlend mode="normal" in2="BackgroundImageFix" result="effect1_dropShadow_202_3"/>
<feBlend mode="normal" in="SourceGraphic" in2="effect1_dropShadow_202_3" result="shape"/>
</filter>
<filter id="filter6_d_202_3" x="822.922" y="515.445" width="289.202" height="265.367" filterUnits="userSpaceOnUse" color-interpolation-filters="sRGB">
<feFlood flood-opacity="0" result="BackgroundImageFix"/>
<feColorMatrix in="SourceAlpha" type="matrix" values="0 0 0 0 0 0 0 0 0 0 0 0 0 0 0 0 0 0 127 0" result="hardAlpha"/>
<feOffset dy="31.7803"/>
<feGaussianBlur stdDeviation="60.3827"/>
<feComposite in2="hardAlpha" operator="out"/>
<feColorMatrix type="matrix" values="0 0 0 0 0 0 0 0 0 1 0 0 0 0 0.7 0 0 0 0.1 0"/>
<feBlend mode="normal" in2="BackgroundImageFix" result="effect1_dropShadow_202_3"/>
<feBlend mode="normal" in="SourceGraphic" in2="effect1_dropShadow_202_3" result="shape"/>
</filter>
<filter id="filter7_d_202_3" x="153.725" y="188.958" width="343.28" height="343.284" filterUnits="userSpaceOnUse" color-interpolation-filters="sRGB">
<feFlood flood-opacity="0" result="BackgroundImageFix"/>
<feColorMatrix in="SourceAlpha" type="matrix" values="0 0 0 0 0 0 0 0 0 0 0 0 0 0 0 0 0 0 127 0" result="hardAlpha"/>
<feOffset dy="13.5417"/>
<feGaussianBlur stdDeviation="25.7292"/>
<feComposite in2="hardAlpha" operator="out"/>
<feColorMatrix type="matrix" values="0 0 0 0 0 0 0 0 0 1 0 0 0 0 0.7 0 0 0 0.1 0"/>
<feBlend mode="normal" in2="BackgroundImageFix" result="effect1_dropShadow_202_3"/>
<feBlend mode="normal" in="SourceGraphic" in2="effect1_dropShadow_202_3" result="shape"/>
</filter>
<linearGradient id="paint0_linear_202_3" x1="670.339" y1="18" x2="670.339" y2="95.8646" gradientUnits="userSpaceOnUse">
<stop stop-color="#01EBD4"/>
<stop offset="1" stop-color="#212121" stop-opacity="0"/>
</linearGradient>
<linearGradient id="paint1_linear_202_3" x1="589.081" y1="399.203" x2="589.081" y2="668.005" gradientUnits="userSpaceOnUse">
<stop offset="0.0625" stop-color="white" stop-opacity="0"/>
<stop offset="1" stop-color="white" stop-opacity="0.8"/>
</linearGradient>
<linearGradient id="paint2_linear_202_3" x1="751.583" y1="399.203" x2="751.583" y2="668.005" gradientUnits="userSpaceOnUse">
<stop offset="0.0625" stop-color="white" stop-opacity="0"/>
<stop offset="1" stop-color="white" stop-opacity="0.8"/>
</linearGradient>
<linearGradient id="paint3_linear_202_3" x1="412.031" y1="265.133" x2="245.469" y2="417.815" gradientUnits="userSpaceOnUse">
<stop stop-color="#01E4E0" stop-opacity="0"/>
<stop offset="0.335732" stop-color="#01E4E0"/>
</linearGradient>
<clipPath id="clip0_202_3">
<rect width="1339" height="686" rx="214" fill="white"/>
</clipPath>
<clipPath id="clip1_202_3">
<rect width="35.2083" height="47.5312" fill="white" transform="translate(97.8633 138.445)"/>
</clipPath>
</defs>
</svg>
